<svg enable-background="new 0 0 45 45" viewBox="0 0 45 45" xmlns="http://www.w3.org/2000/svg" xmlns:xlink="http://www.w3.org/1999/xlink"><clipPath id="a"><path d="m0 36h36v-36h-36z"/></clipPath><clipPath id="b"><path d="m8 36c-2.958 0-6-5-5-7 1.613-3.225 12-13 12-13h6s10 10 12 13c1 2-2.333 7-5 7zm4-8c-2 2-1 2 6 2 8 0 7.5-.5 6-2l-6-6z"/></clipPath><clipPath id="c"><path d="m0 36h36v-36h-36z"/></clipPath><g transform="matrix(1.25 0 0 -1.25 0 45)"><g clip-path="url(#a)"><path d="m0 0-6-6-6 6c-2 2-1 2 6 2 8 0 7.5-.5 6-2m4 8h-20c-2.958 0-6-5-5-7 1.612-3.225 12-13 12-13h6s10 10 12 13c1 2-2.333 7-5 7" fill="#55acee" transform="translate(24 28)"/></g><g clip-path="url(#b)"><path d="m0 0c-1 1-8 9-3 9h16c2.268 0 4-2-2-8-3-3-11-1-11-1" fill="#3b88c3" transform="translate(13 27)"/></g><g clip-path="url(#c)"><path d="m0 0c0-.828-.672-1.5-1.5-1.5h-5c-.829 0-1.5.672-1.5 1.5s.671 1.5 1.5 1.5h5c.828 0 1.5-.672 1.5-1.5" fill="#ffac33" transform="translate(22 15.5)"/><path d="m0 0c0-4.418-3.582-8-8-8-4.419 0-8 3.582-8 8s3.581 8 8 8c4.418 0 8-3.582 8-8" fill="#ffac33" transform="translate(26 8)"/><path d="m0 0h-1.346c-.14 0-.253.126-.253.266v.883c0 .056.042.168.084.21l2.048 1.599h1.29c.14 0 .252-.126.252-.266v-9.003c0-.14-.112-.266-.252-.266h-1.556c-.155 0-.267.126-.267.266z" fill="#9e5200" transform="translate(17.229 10.092)"/></g></g></svg>