<svg enable-background="new 0 0 45 45" viewBox="0 0 45 45" xmlns="http://www.w3.org/2000/svg" xmlns:xlink="http://www.w3.org/1999/xlink"><clipPath id="a"><path d="m0 36h36v-36h-36z"/></clipPath><clipPath id="b"><path d="m8 36c-2.958 0-6-5-5-7 1.613-3.225 12-13 12-13h6s10 10 12 13c1 2-2.333 7-5 7zm4-8c-2 2-1 2 6 2 8 0 7.5-.5 6-2l-6-6z"/></clipPath><clipPath id="c"><path d="m0 36h36v-36h-36z"/></clipPath><g transform="matrix(1.25 0 0 -1.25 0 45)"><g clip-path="url(#a)"><path d="m0 0-6-6-6 6c-2 2-1 2 6 2 8 0 7.5-.5 6-2m4 8h-20c-2.958 0-6-5-5-7 1.612-3.225 12-13 12-13h6s10 10 12 13c1 2-2.333 7-5 7" fill="#55acee" transform="translate(24 28)"/></g><g clip-path="url(#b)"><path d="m0 0c-1 1-8 9-3 9h16c2.268 0 4-2-2-8-3-3-11-1-11-1" fill="#3b88c3" transform="translate(13 27)"/></g><g clip-path="url(#c)"><path d="m0 0c0-.828-.672-1.5-1.5-1.5h-5c-.829 0-1.5.672-1.5 1.5s.671 1.5 1.5 1.5h5c.828 0 1.5-.672 1.5-1.5" fill="#ccd6dd" transform="translate(22 15.5)"/><path d="m0 0c0-4.418-3.582-8-8-8-4.419 0-8 3.582-8 8s3.581 8 8 8c4.418 0 8-3.582 8-8" fill="#ccd6dd" transform="translate(26 8)"/><path d="m0 0c.813 1.065 2.889 3.885 3.716 5.146.182.281.365.673.365 1.066 0 .533-.45 1.01-1.235 1.01-.575 0-1.094-.407-1.36-.701-.112-.113-.28-.113-.392 0l-.856.869c-.098.085-.112.253-.014.365 0 0 1.136 1.374 2.805 1.374 2.005 0 3.183-1.276 3.183-2.833 0-.743-.21-1.163-.547-1.822-.448-.8-1.599-2.3-2.257-3.226h2.657c.139 0 .266-.126.266-.267v-1.261c0-.141-.127-.267-.266-.267h-5.799c-.154 0-.266.126-.266.267z" fill="#627077" transform="translate(14.935 4.061)"/></g></g></svg>