<svg enable-background="new 0 0 45 45" viewBox="0 0 45 45" xmlns="http://www.w3.org/2000/svg" xmlns:xlink="http://www.w3.org/1999/xlink"><clipPath id="a"><path d="m0 36h36v-36h-36z"/></clipPath><clipPath id="b"><path d="m8 36c-2.958 0-6-5-5-7 1.613-3.225 12-13 12-13h6s10 10 12 13c1 2-2.333 7-5 7zm4-8c-2 2-1 2 6 2 8 0 7.5-.5 6-2l-6-6z"/></clipPath><clipPath id="c"><path d="m0 36h36v-36h-36z"/></clipPath><g transform="matrix(1.25 0 0 -1.25 0 45)"><g clip-path="url(#a)"><path d="m0 0-6-6-6 6c-2 2-1 2 6 2 8 0 7.5-.5 6-2m4 8h-20c-2.958 0-6-5-5-7 1.612-3.225 12-13 12-13h6s10 10 12 13c1 2-2.333 7-5 7" fill="#55acee" transform="translate(24 28)"/></g><g clip-path="url(#b)"><path d="m0 0c-1 1-8 9-3 9h16c2.268 0 4-2-2-8-3-3-11-1-11-1" fill="#3b88c3" transform="translate(13 27)"/></g><g clip-path="url(#c)"><path d="m0 0c0-.828-.672-1.5-1.5-1.5h-5c-.829 0-1.5.672-1.5 1.5s.671 1.5 1.5 1.5h5c.828 0 1.5-.672 1.5-1.5" fill="#ff8a3b" transform="translate(22 15.5)"/><path d="m0 0c0-4.418-3.582-8-8-8-4.419 0-8 3.582-8 8s3.581 8 8 8c4.418 0 8-3.582 8-8" fill="#ff8a3b" transform="translate(26 8)"/><path d="m0 0 .884.884c.097.098.238.112.35.028 0 0 .87-.645 1.542-.645.604 0 1.221.504 1.221 1.122 0 .617-.632 1.135-1.669 1.135h-.479c-.14 0-.266.126-.266.267v1.164c0 .154.126.267.266.267h.479c.982 0 1.5.476 1.5 1.079s-.518 1.052-1.122 1.052c-.617 0-1.01-.323-1.22-.561-.098-.112-.266-.112-.378-.015l-.855.842c-.113.099-.099.267 0 .364 0 0 1.149 1.235 2.678 1.235 1.627 0 3.029-.996 3.029-2.567 0-1.079-.814-1.879-1.444-2.172v-.043c.659-.281 1.696-1.15 1.696-2.356 0-1.528-1.332-2.679-3.268-2.679-1.765 0-2.664.87-2.958 1.248-.085.099-.07.253.014.351" fill="#7c4119" transform="translate(15.089 4.987)"/></g></g></svg>