<svg enable-background="new 0 0 45 45" viewBox="0 0 45 45" xmlns="http://www.w3.org/2000/svg" xmlns:xlink="http://www.w3.org/1999/xlink"><clipPath id="a"><path d="m0 36h36v-36h-36z"/></clipPath><g clip-path="url(#a)" transform="matrix(1.25 0 0 -1.25 0 45)"><path d="m0 0c0-9.389-7.611-17-17-17-9.388 0-17 7.611-17 17 0 9.388 7.612 17 17 17 9.389 0 17-7.612 17-17" fill="#ffcc4d" transform="translate(35 19)"/><path d="m0 0c0-1.934-1.119-3.5-2.5-3.5s-2.5 1.566-2.5 3.5c0 1.933 1.119 3.5 2.5 3.5s2.5-1.567 2.5-3.5" fill="#664500" transform="translate(15 22.107)"/><path d="m0 0c0-3.59-2.91-6.5-6.5-6.5s-6.5 2.91-6.5 6.5 2.91 6.5 6.5 6.5 6.5-2.91 6.5-6.5" fill="#f5f8fa" transform="translate(31 22.5)"/><path d="m0 0c-3.032 0-5.5-2.467-5.5-5.5s2.468-5.5 5.5-5.5 5.5 2.467 5.5 5.5-2.468 5.5-5.5 5.5m0-13c-4.136 0-7.5 3.364-7.5 7.5s3.364 7.5 7.5 7.5 7.5-3.364 7.5-7.5-3.364-7.5-7.5-7.5" fill="#67757f" transform="translate(24.5 28)"/><path d="m0 0c-.304 0-.604.138-.801.4-.935 1.247-1.915 1.916-2.911 1.987-1.313.089-2.383-.895-2.582-1.094-.391-.391-1.023-.391-1.414 0s-.391 1.023 0 1.414c.431.431 2.011 1.828 4.137 1.674 1.601-.113 3.071-1.049 4.37-2.781.331-.442.242-1.069-.2-1.4-.18-.135-.391-.2-.599-.2" fill="#664500" transform="translate(15.001 26.607)"/><path d="m0 0c-.553 0-1 .447-1 1v20c0 .552.447 1 1 1s1-.448 1-1v-20c0-.553-.447-1-1-1" fill="#292f33" transform="translate(32 1)"/><path d="m0 0c0-1.105-.895-2-2-2s-2 .895-2 2 .895 2 2 2 2-.895 2-2" fill="#67757f" transform="translate(34 22)"/><path d="m0 0c-.15 0-.303.034-.446.105-1.718.86-3.388.86-5.106 0-.494-.246-1.095-.046-1.342.448s-.046 1.094.448 1.342c2.286 1.142 4.606 1.142 6.894 0 .494-.248.695-.848.448-1.342-.176-.351-.529-.553-.896-.553" fill="#664500" transform="translate(20.999 9)"/><g fill="#bdddf4"><path d="m0 0c-.861.56-1.887.888-2.991.888-3.037 0-5.5-2.462-5.5-5.5 0-1.104.329-2.129.888-2.991z" transform="translate(27.491 27.112)"/><path d="m0 0c.713-.337 1.506-.532 2.347-.532 3.038 0 5.5 2.463 5.5 5.5 0 .841-.194 1.635-.532 2.347z" transform="translate(22.153 17.532)"/></g></g></svg>