<svg enable-background="new 0 0 45 45" viewBox="0 0 45 45" xmlns="http://www.w3.org/2000/svg" xmlns:xlink="http://www.w3.org/1999/xlink"><clipPath id="a"><path d="m0 36h36v-36h-36z"/></clipPath><g clip-path="url(#a)" transform="matrix(1.25 0 0 -1.25 0 45)"><path d="m0 0c0-9.941-8.059-18-18-18-9.94 0-18 8.059-18 18 0 9.94 8.06 18 18 18 9.941 0 18-8.06 18-18" fill="#ffcc4d" transform="translate(36 18)"/><g fill="#664500"><path d="m0 0c-.176.143-.427.147-.61.014-.013-.01-1.261-.902-3.702-.902s-3.69.892-3.701.9c-.182.136-.434.133-.611-.009-.178-.142-.238-.386-.146-.594.061-.135 1.5-3.297 4.458-3.297s4.397 3.162 4.457 3.297c.091.207.031.449-.145.591" transform="translate(17.313 18.388)"/><path d="m0 0c-.176.143-.426.148-.61.014-.012-.01-1.261-.902-3.702-.902s-3.691.892-3.701.9c-.182.136-.433.133-.611-.009s-.238-.386-.146-.594c.06-.135 1.5-3.297 4.458-3.297s4.397 3.162 4.457 3.297c.091.207.032.449-.145.591" transform="translate(27.313 18.388)"/><path d="m0 0h-8c-.552 0-1 .447-1 1s.448 1 1 1h8c.553 0 1-.447 1-1s-.447-1-1-1" transform="translate(22 8)"/><path d="m0 0c-.552 0-1 .448-1 1 0 .551.445.998.996 1 .155.002 3.568.086 6.204 3.6.331.44.958.532 1.4.2.442-.331.531-.958.2-1.4-3.262-4.35-7.616-4.4-7.8-4.4" transform="translate(6 22)"/><path d="m0 0c-.184 0-4.537.05-7.8 4.4-.332.442-.242 1.069.2 1.4.442.333 1.068.242 1.4-.2 2.64-3.521 6.061-3.599 6.206-3.6.55-.006.994-.456.991-1.005-.003-.551-.447-.995-.997-.995" transform="translate(30 22)"/></g></g></svg>