<svg enable-background="new 0 0 45 45" viewBox="0 0 45 45" xmlns="http://www.w3.org/2000/svg" xmlns:xlink="http://www.w3.org/1999/xlink"><clipPath id="a"><path d="m0 36h36v-36h-36z"/></clipPath><g clip-path="url(#a)" transform="matrix(1.25 0 0 -1.25 0 45)"><path d="m0 0c0 4.939-6.772 4.457-9.169 4.132-2.433 1.789-5.387 2.868-8.831 2.868-3.438 0-6.388-1.081-8.818-2.869-2.385.325-9.182.817-9.182-4.131 0-2.891 1.563-4.732 2.433-5.533-.947-2.727-1.433-5.642-1.433-8.467 0-9.941 10-13 17-13s17 3 17 13c0 2.835-.483 5.751-1.426 8.473.871.805 2.426 2.644 2.426 5.527" fill="#bf6952" transform="translate(36 29)"/><path d="m0 0c-1.96 0-3.729-.808-5-2.105-1.27 1.297-3.04 2.105-5 2.105-3.866 0-7-3.134-7-7s3.134-7 7-7c1.96 0 3.73.808 5 2.105 1.271-1.297 3.04-2.105 5-2.105 3.866 0 7 3.134 7 7s-3.134 7-7 7" fill="#d79e84" transform="translate(23 29)"/><path d="m0 0c0-4.419-3.581-8-8-8s-8 3.581-8 8 3.581 8 8 8 8-3.581 8-8" fill="#d79e84" transform="translate(26 9)"/><path d="m0 0-3.713-13.82h-7.643l5.356 17.82z" fill="#bf6952" transform="translate(11.356 13.82)"/><path d="m0 0c-2.503 0-5.055-1.61-6.418-2.629-.658 1.066-1.865 2.449-3.686 2.449-.317 0-1.1-.11-1.506-1.133-.173-.435-.261-1.003-.261-1.69 0-3.551 2.325-10.176 6.767-10.176 3.623 0 5.081.801 5.552 1.16.702.371 4.51 2.522 5.032 5.738.271 1.674-.36 3.292-1.877 4.808-.977.978-2.189 1.473-3.603 1.473" fill="#bf6952" transform="translate(14.46 26)"/><path d="m0 0c1.034 0 2.041-.324 2.896-1.18 5-4.999-3-8.999-3-8.999s-1-1-5-1c-5 0-7 10.999-5 10.999 2.236 0 3.356-3 3.356-3s3.51 3.18 6.748 3.18" fill="#d79e84" transform="translate(14.46 25)"/><g fill="#bf6952"><path d="m0 0c-.162 0-.32.078-.417.223-.153.23-.091.54.139.693l6 4c.231.153.541.092.693-.139.154-.23.092-.54-.138-.693l-6-4c-.086-.057-.182-.084-.277-.084" transform="translate(11.001 20.32)"/><path d="m0 0c-.162 0-.32.078-.417.223-.153.23-.091.54.139.693l6 3.999c.228.153.538.092.693-.138.154-.23.091-.54-.138-.694l-6-3.999c-.086-.057-.182-.084-.277-.084" transform="translate(13.001 17.32)"/><path d="m0 0 3-13.82h8l-5 17.82z" transform="translate(25 13.82)"/><path d="m0 0c-1.449 0-2.679-.495-3.656-1.473-1.518-1.516-2.149-3.134-1.877-4.808.521-3.216 4.33-5.367 5.031-5.738.473-.359 1.93-1.16 5.553-1.16 4.442 0 6.766 6.625 6.766 10.176 0 .687-.088 1.255-.26 1.69-.407 1.023-1.189 1.133-1.506 1.133-1.701 0-2.818-1.206-3.446-2.403-1.437 1.015-4.071 2.583-6.605 2.583" transform="translate(21.949 26)"/></g><path d="m0 0c3.337 0 7.051-3.18 7.051-3.18s.763 3 3 3c2 0 0-10.999-5-10.999-4 0-5 1-5 1s-8 4-3 8.999c.855.856 1.883 1.18 2.949 1.18" fill="#d79e84" transform="translate(21.949 25)"/><path d="m0 0c-.096 0-.192.027-.277.084l-6 3.999c-.23.154-.292.464-.139.694.152.229.462.292.693.138l6-3.999c.23-.153.292-.463.139-.693-.097-.145-.255-.223-.416-.223" fill="#bf6952" transform="translate(24 17.5)"/><path d="m0 0c-.096 0-.192.027-.277.084l-6 4c-.23.153-.292.463-.139.693.154.23.465.291.693.139l6-4c.23-.153.292-.463.139-.693-.097-.145-.255-.223-.416-.223" fill="#bf6952" transform="translate(26 20.5)"/><path d="m0 0c-.092.147-.253.237-.426.237h-10c-.173 0-.334-.09-.425-.237s-.1-.331-.022-.486c.087-.175 2.176-4.277 5.447-4.277 3.272 0 5.361 4.102 5.447 4.277.078.155.07.339-.021.486" fill="#642116" transform="translate(23.426 7.263)"/><path d="m0 0c-.276 0-.5.224-.5.5v2c0 .276.224.5.5.5s.5-.224.5-.5v-2c0-.276-.224-.5-.5-.5" fill="#642116" transform="translate(19 10.5)"/><path d="m0 0c-.276 0-.5.224-.5.5v2c0 .276.224.5.5.5s.5-.224.5-.5v-2c0-.276-.224-.5-.5-.5" fill="#642116" transform="translate(17 10.5)"/></g></svg>